# AST/ASF file generated using VICON BodyLanguage
# -----------------------------------------------
:version 1.10
:name VICON
:units
  mass 1.0
  length 0.45
  angle deg
:documentation
   .ast/.asf automatically generated from VICON data using
   VICON BodyBuilder and BodyLanguage model FoxedUp or BRILLIANT.MOD
:root
   order TX TY TZ RX RY RZ
   axis XYZ
   position 0 0 0  
   orientation 0 0 0 
:bonedata
  begin
     id 1 
     name lhipjoint
     direction 0.567725 -0.736092 0.368589 
     length 2.42353 
     axis 0 0 0  XYZ
  end
  begin
     id 2 
     name lfemur
     direction 0.34202 -0.939693 0  
     length 7.24894  
     axis 0 0 20  XYZ
    dof rx ry rz
    limits (-160.0 20.0)
           (-70.0 70.0)
           (-60.0 70.0)
  end
  begin
     id 3 
     name ltibia
     direction 0.34202 -0.939693 0   
     length 7.6997   
     axis 0 0 20   XYZ
    dof rx
    limits (-10.0 170.0)
  end
  begin
     id 4 
     name lfoot
     direction 0.100767 -0.276854 0.955614   
     length 2.37556   
     axis -90 7.62852e-016 20   XYZ
    dof rx rz
    limits (-45.0 90.0)
           (-70.0 20.0)
  end
  begin
     id 5 
     name ltoes
     direction 1.53592e-011 -4.21894e-011 1   
     length 1.18363   
     axis -90 7.62852e-016 20   XYZ
    dof rx
    limits (-90.0 20.0)
  end
  begin
     id 6 
     name rhipjoint
     direction -0.556459 -0.742938 0.372017   
     length 2.4012  
     axis 0 0 0  XYZ 
  end
  begin
     id 7 
     name rfemur
     direction -0.34202 -0.939693 0   
     length 7.5119   
     axis 0 0 -20   XYZ
    dof rx ry rz
    limits (-160.0 20.0)
           (-70.0 70.0)
           (-70.0 60.0)
  end
  begin
     id 8 
     name rtibia
     direction -0.34202 -0.939693 0   
     length 7.50155   
     axis 0 0 -20   XYZ
    dof rx
    limits (-10.0 170.0)
 end
 begin
     id 9 
     name rfoot
     direction -0.118427 -0.325376 0.938139   
     length 2.32487  
     axis -90 -7.62852e-016 -20   XYZ
    dof rx rz
    limits (-45.0 90.0)
           (-20.0 70.0)
  end
  begin
     id 10 
     name rtoes
     direction -1.53525e-011 -4.21868e-011 1   
     length 1.15233   
     axis -90 -7.62852e-016 -20   XYZ
    dof rx
    limits (-90.0 20.0)
  end
  begin
     id 11 
     name lowerback
     direction 0.0287568 0.999577 -0.00434502   
     length 2.15243   
     axis 0 0 0   XYZ
    dof rx ry rz
    limits (-20.0 45.0)
           (-30.0 30.0)
           (-30.0 30.0)
  end
  begin
     id 12 
     name upperback
     direction 0.0294009 0.99956 0.00404628   
     length 2.15427   
     axis 0 0 0   XYZ
    dof rx ry rz
    limits (-20.0 45.0)
           (-30.0 30.0)
           (-30.0 30.0)
  end
  begin
     id 13 
     name thorax
     direction 0.0151014 0.999868 0.0059419   
     length 2.14898   
     axis 0 0 0   XYZ
    dof rx ry rz
    limits (-20.0 45.0)
           (-30.0 30.0)
           (-30.0 30.0)
  end
  begin
     id 14 
     name lowerneck
     direction -0.0249197 0.989906 0.139515   
     length 1.6861   
     axis 0 0 0   XYZ
    dof rx ry rz
    limits (-20.0 45.0)
           (-30.0 30.0)
           (-30.0 30.0)
  end
  begin
     id 15 
     name upperneck
     direction 0.0438463 0.988795 -0.142693   
     length 1.71276   
     axis 0 0 0   XYZ
    dof rx ry rz
    limits (-20.0 45.0)
           (-30.0 30.0)
           (-30.0 30.0)
  end
  begin
     id 16
     name head
     direction 0.0148499 0.997845 -0.0639186  
     length 1.7209  
     axis 0 0 0   XYZ
    dof rx ry rz
    limits (-20.0 45.0)
           (-30.0 30.0)
           (-30.0 30.0)
  end
  begin
     id 17 
     name lclavicle
     direction 0.940298 0.323464 -0.105876  
     length 3.9048  
     axis 0 0 0   XYZ
    dof ry rz
    limits (-20.0 10.0)
           (0.0 20.0)
  end
  begin
     id 18 
     name lhumerus
     direction 1 -4.48954e-011 -4.9675e-028   
     length 4.6851   
     axis 180 -30 -90   XYZ
    dof rx ry rz
    limits (-60.0 90.0)
           (-90.0 90.0)
           (-90.0 90.0)
  end
  begin
     id 19
     name lradius
     direction 1 -4.48992e-011 -1.03359e-026   
     length 3.39626   
     axis 180 -30 -90   XYZ
    dof rx
    limits (-10.0 170.0)
  end
  begin
     id 20
     name lwrist
     direction 1 -4.48906e-011 -1.67336e-026   
     length 1.69813   
     axis 9.90442e-015 90 90   XYZ
    dof ry
    limits (-180.0 0.0)
 end
  begin
     id 21 
     name lhand
     direction 1 -4.49006e-011 -3.34673e-026   
     length 0.486078   
     axis 2.1355e-014 90 90   XYZ
    dof rx rz
    limits (-90.0 90.0)
           (-45.0 45.0)
  end
  begin
     id 22 
     name lfingers
     direction 1 -4.48992e-011 -6.69345e-026   
     length 0.391889   
     axis 4.27099e-014 90 90   XYZ
    dof rx
    limits (0.0 90.0)
  end
  begin
     id 23
     name lthumb
     direction 0.707107 -6.34926e-011 0.707107   
     length 0.562676   
     axis -90 45 2.85299e-015   XYZ
    dof rx rz
    limits (-45.0 45.0)
           (-45.0 45.0)
  end
  begin
     id 24 
     name rclavicle
     direction -0.882459 0.414895 -0.221648   
     length 3.44646  
     axis 0 0 0   XYZ 
    dof ry rz
    limits (-10.0 20.0)
           (-20.0 0.0)
  end
  begin
     id 25 
     name rhumerus
     direction -1 -4.48962e-011 -2.37984e-027  
     length 5.55576   
     axis 180 30 90   XYZ
    dof rx ry rz
    limits (-90.0 60.0)
           (-90.0 90.0)
           (-90.0 90.0)
  end
  begin
     id 26 
     name rradius
     direction -1 -4.48982e-011 -6.86791e-027   
     length 3.32774   
     axis 180 30 90   XYZ
    dof rx
    limits (-10.0 170.0)
  end
  begin
     id 27 
     name rwrist
     direction -1 -4.48961e-011 -1.67336e-026   
     length 1.66387   
     axis 9.90442e-015 -90 -90   XYZ
    dof ry
    limits (-180.0 0.0)
  end
  begin
     id 28
     name rhand
     direction -1 -4.4897e-011 -3.34673e-026   
     length 0.507628   
     axis 2.1355e-014 -90 -90   XYZ
    dof rx rz
    limits (-90.0 90.0)
           (-45.0 45.0)
  end
  begin
     id 29
     name rfingers
     direction -1 -4.48854e-011 -6.69345e-026   
     length 0.409263   
     axis 4.27099e-014 -90 -90   XYZ
    dof rx
    limits (0.0 90.0)
  end
  begin
     id 30
     name rthumb
     direction -0.707107 -6.34913e-011 0.707107   
     length 0.587622   
     axis -90 -45 -2.85299e-015   XYZ
    dof rx rz
    limits (-45.0 45.0)
           (-45.0 45.0)
  end
:hierarchy
  begin
    root lhipjoint rhipjoint lowerback
    lhipjoint lfemur
    lfemur ltibia
    ltibia lfoot
    lfoot ltoes
    rhipjoint rfemur
    rfemur rtibia
    rtibia rfoot
    rfoot rtoes
    lowerback upperback
    upperback thorax
    thorax lowerneck lclavicle rclavicle
    lowerneck upperneck
    upperneck head
    lclavicle lhumerus
    lhumerus lradius
    lradius lwrist
    lwrist lhand lthumb
    lhand lfingers
    rclavicle rhumerus
    rhumerus rradius
    rradius rwrist
    rwrist rhand rthumb
    rhand rfingers
  end

#!OML:ASF E:\motion texture\Top Level 1\Subject 1\Session 1\male.ASF
:FULLY-SPECIFIED
:DEGREES
65
root 36.7149 17.382 4.77239 104.751 -83.4837 -92.9286
lowerback -2.1709 2.25232 4.04463
upperback -1.07388 2.88619 1.65521
thorax 0.228418 1.41971 -0.495254
lowerneck -20.1645 -0.15538 -5.23789
upperneck 14.2232 0.310216 5.18263
head 7.66821 0.376667 2.61695
rclavicle -7.24943e-015 1.13307e-014
rhumerus -18.1547 17.1795 -86.6217
rradius 62.1514
rwrist 19.2489
rhand -19.1739 -22.3755
rfingers 7.12502
rthumb 7.13727 -52.2351
lclavicle -7.24943e-015 1.13307e-014
lhumerus -28.3924 3.59462 92.1054
lradius 52.8545
lwrist -13.4344
lhand -14.1357 25.1604
lfingers 7.12502
lthumb 11.9983 54.7965
rfemur -4.80232 -1.12771 27.248
rtibia 34.4924
rfoot -7.72803 -8.46751
rtoes -1.97673
lfemur -34.4213 -1.99411 -8.68214
ltibia 19.3058
lfoot -1.31526 8.07066
ltoes -4.9076
66
root 36.5706 17.3944 4.7947 103.768 -83.6841 -92.055
lowerback -2.15381 2.23993 3.83953
upperback -1.07548 2.87676 1.60673
thorax 0.209426 1.41611 -0.432057
lowerneck -20.1738 -0.194825 -5.21848
upperneck 14.2773 0.247386 5.19463
head 7.6914 0.348811 2.61117
rclavicle 2.27174e-014 -2.28602e-015
rhumerus -18.1124 17.353 -86.7282
rradius 62.7273
rwrist 19.362
rhand -19.2184 -22.2605
rfingers 7.12502
rthumb 7.09431 -52.1216
lclavicle 2.27174e-014 -2.28602e-015
lhumerus -28.2289 2.82963 92.4014
lradius 53.0387
lwrist -13.3125
lhand -14.1435 25.2436
lfingers 7.12502
lthumb 11.9907 54.8801
rfemur -5.43985 -1.41546 26.858
rtibia 36.0203
rfoot -6.66935 -8.69501
rtoes -2.10318
lfemur -33.9382 -2.146 -9.12055
ltibia 19.4874
lfoot -1.40129 7.8803
ltoes -4.4752
67
root 36.4261 17.4074 4.81702 102.678 -83.8879 -91.0805
lowerback -2.13411 2.22521 3.6302
upperback -1.0755 2.86421 1.55921
thorax 0.190285 1.41099 -0.365614
lowerneck -20.181 -0.234767 -5.20012
upperneck 14.329 0.183748 5.20847
head 7.71346 0.320706 2.606
rclavicle 1.95927e-014 2.34069e-014
rhumerus -18.0772 17.5254 -86.8352
rradius 63.297
rwrist 19.4679
rhand -19.2529 -22.1427
rfingers 7.12502
rthumb 7.06101 -52.005
lclavicle 1.95927e-014 2.34069e-014
lhumerus -28.0648 2.03816 92.697
lradius 53.2229
lwrist -13.1889
lhand -14.1502 25.3168
lfingers 7.12502
lthumb 11.9843 54.9537
rfemur -6.1229 -1.70917 26.4654
rtibia 37.5682
rfoot -5.62698 -8.94264
rtoes -2.13365
lfemur -33.4292 -2.30484 -9.5621
ltibia 19.6511
lfoot -1.50544 7.69012
ltoes -4.04063
68
root 36.2812 17.4209 4.83936 101.495 -84.0932 -90.0165
lowerback -2.11137 2.20887 3.41924
upperback -1.07406 2.84947 1.51243
thorax 0.170819 1.4048 -0.297612
lowerneck -20.186 -0.27514 -5.18295
upperneck 14.3783 0.119584 5.2233
head 7.73442 0.292391 2.60121
rclavicle -3.27373e-015 -2.31584e-014
rhumerus -18.0463 17.6997 -86.9427
rradius 63.8579
rwrist 19.5665
rhand -19.275 -22.0193
rfingers 7.12502
rthumb 7.03972 -51.8822
lclavicle -3.27373e-015 -2.31584e-014
lhumerus -27.9006 1.22138 92.9909
lradius 53.4087
lwrist -13.0639
lhand -14.154 25.3857
lfingers 7.12502
lthumb 11.9806 55.0229
rfemur -6.84961 -2.00528 26.072
rtibia 39.1286
rfoot -4.61427 -9.20532
rtoes -2.06417
lfemur -32.8922 -2.46914 -10.0049
ltibia 19.7905
lfoot -1.62864 7.50458
ltoes -3.61071
69
root 36.1362 17.4348 4.86159 100.202 -84.2991 -88.8458
lowerback -2.08572 2.19087 3.20567
upperback -1.07079 2.83244 1.46739
thorax 0.15139 1.39749 -0.226436
lowerneck -20.1898 -0.316363 -5.16773
upperneck 14.4255 0.0544088 5.2401
head 7.75451 0.263701 2.59721
rclavicle 1.70831e-014 1.02871e-014
rhumerus -18.0188 17.8751 -87.0492
rradius 64.4103
rwrist 19.6596
rhand -19.2907 -21.8968
rfingers 7.12502
rthumb 7.02457 -51.7602
lclavicle 1.70831e-014 1.02871e-014
lhumerus -27.7354 0.380699 93.283
lradius 53.5973
lwrist -12.9373
lhand -14.1496 25.456
lfingers 7.12502
lthumb 11.9849 55.0929
rfemur -7.61834 -2.3027 25.6805
rtibia 40.6916
rfoot -3.64175 -9.48097
rtoes -1.93297
lfemur -32.3295 -2.63636 -10.4481
ltibia 19.9036
lfoot -1.7712 7.32151
ltoes -3.18104
70
root 35.9913 17.449 4.88371 98.7821 -84.5046 -87.5513
lowerback -2.05685 2.17112 2.99089
upperback -1.06583 2.81299 1.42387
thorax 0.131798 1.38899 -0.153126
lowerneck -20.192 -0.357423 -5.15249
upperneck 14.4691 -0.0106168 5.25716
head 7.77318 0.235126 2.59322
rclavicle -2.883e-014 5.76476e-015
rhumerus -17.9949 18.0521 -87.1542
rradius 64.9541
rwrist 19.7469
rhand -19.2985 -21.7663
rfingers 7.12502
rthumb 7.01698 -51.63
lclavicle -2.883e-014 5.76476e-015
lhumerus -27.5692 -0.482306 93.5726
lradius 53.7895
lwrist -12.8102
lhand -14.1433 25.5213
lfingers 7.12502
lthumb 11.9909 55.1578
rfemur -8.42604 -2.60202 25.2915
rtibia 42.2471
rfoot -2.72339 -9.76718
rtoes -1.73775
lfemur -31.7417 -2.80769 -10.8907
ltibia 19.9895
lfoot -1.93571 7.14203
ltoes -2.76123
71
root 35.8465 17.4634 4.90558 97.2219 -84.7086 -86.118
lowerback -2.02448 2.14939 2.77464
upperback -1.06053 2.79083 1.38197
thorax 0.110482 1.37912 -0.0774669
lowerneck -20.1914 -0.398343 -5.13996
upperneck 14.5088 -0.075388 5.27767
head 7.79002 0.206865 2.59076
rclavicle -2.45748e-014 -4.24902e-015
rhumerus -17.9743 18.2331 -87.2576
rradius 65.4894
rwrist 19.8274
rhand -19.2981 -21.6362
rfingers 7.12502
rthumb 7.01745 -51.4999
lclavicle -2.45748e-014 -4.24902e-015
lhumerus -27.4035 -1.36562 93.8582
lradius 53.9874
lwrist -12.683
lhand -14.1345 25.5791
lfingers 7.12502
lthumb 11.9994 55.2151
rfemur -9.27207 -2.90109 24.9073
rtibia 43.7859
rfoot -1.86533 -10.0635
rtoes -1.4819
lfemur -31.1329 -2.98013 -11.332
ltibia 20.0479
lfoot -2.12137 6.96559
ltoes -2.35575
